<?xml version="1.0" encoding="iso-8859-1"?>
<!-- Generator: Adobe Illustrator 19.0.0, SVG Export Plug-In . SVG Version: 6.00 Build 0)  -->
<svg version="1.1" id="Layer_1" xmlns="http://www.w3.org/2000/svg" xmlns:xlink="http://www.w3.org/1999/xlink" x="0px" y="0px"
	 viewBox="0 0 512 512" style="enable-background:new 0 0 512 512;" xml:space="preserve">
<g>
	<polygon style="fill:#1D1D1B;" points="248,109.778 264,109.778 264,84 284.888,84 284.888,68 227.112,68 227.112,84 248,84 	"/>
	<path style="fill:#1D1D1B;" d="M488.471,428l-0.102-38.947H264V372h224.493v-19.816c0-62.101-24.184-120.485-68.096-164.398
		C376.486,143.874,318.102,119.69,256,119.69s-120.486,24.184-164.398,68.096S23.507,290.082,23.507,352.184V372H248v17.053H23.631
		L23.937,428H0v16h512v-16H488.471z M39.508,356v-3.815c0-119.374,97.118-216.492,216.492-216.492s216.492,97.118,216.492,216.492
		V356H39.508z M472.492,428H40v-22.946h432.493V428H472.492z"/>
	<path style="fill:#1D1D1B;" d="M299.729,168.875c8.242,5.194,16.216,11.004,23.695,17.27l10.274-12.265
		c-8.03-6.727-16.59-12.965-25.441-18.541L299.729,168.875z"/>
	<path style="fill:#1D1D1B;" d="M338.301,199.829c31.954,32.256,52.662,72.869,59.887,117.448l15.793-2.559
		c-7.761-47.889-30-91.51-64.315-126.149L338.301,199.829z"/>
</g>
<g>
</g>
<g>
</g>
<g>
</g>
<g>
</g>
<g>
</g>
<g>
</g>
<g>
</g>
<g>
</g>
<g>
</g>
<g>
</g>
<g>
</g>
<g>
</g>
<g>
</g>
<g>
</g>
<g>
</g>
</svg>
