<svg xmlns="http://www.w3.org/2000/svg" width="42" height="22" viewBox="0 0 42 22">
    <g fill="#9B9B9B" fill-rule="nonzero">
        <path d="M0 14.348v4.464h5.25V22h1.313v-3.188h28.875V22h1.312v-3.188H42v-4.464H0zm40.688 3.188H1.312v-1.913h39.376v1.913zM36.14 13.391v-1.14c0-1.481-1.436-2.686-3.2-2.686H8.083c-1.764 0-3.2 1.205-3.2 2.686v1.14h1.303v-1.14c0-.878.851-1.593 1.897-1.593H32.94c1.046 0 1.897.715 1.897 1.593v1.14h1.303z"/>
        <path d="M4.256 1.275H38.72v12.116h1.326V0H2.93v13.391h1.326z"/>
        <path d="M20.512 7.652V6.064a2.23 2.23 0 0 0-2.219-2.238h-6.307a2.23 2.23 0 0 0-2.219 2.238v1.588h1.264V6.064a.96.96 0 0 1 .955-.963h6.307a.96.96 0 0 1 .955.963v1.588h1.264zM32.233 7.652V6.064a2.23 2.23 0 0 0-2.219-2.238h-6.307a2.23 2.23 0 0 0-2.219 2.238v1.588h1.264V6.064a.96.96 0 0 1 .955-.963h6.307a.96.96 0 0 1 .954.963v1.588h1.265z"/>
    </g>
</svg>
