<?xml version="1.0" encoding="UTF-8"?>
<svg width="30px" height="25px" viewBox="0 0 30 25" version="1.1" xmlns="http://www.w3.org/2000/svg" xmlns:xlink="http://www.w3.org/1999/xlink">
    <!-- Generator: Sketch 50.2 (55047) - http://www.bohemiancoding.com/sketch -->
    <title>Shape</title>
    <desc>Created with Sketch.</desc>
    <defs></defs>
    <g id="Symbols" stroke="none" stroke-width="1" fill="none" fill-rule="evenodd">
        <g id="icon/paw" transform="translate(-6.000000, -9.000000)" fill-rule="nonzero" stroke="#1d1d1d">
            <path d="M25.6611815,10.0202855 C25.5781011,10.0067618 25.4950207,10 25.4119403,10 L25.4119403,10.0270473 L25.4119403,10.0067618 L25.3842468,10.0067618 C23.8611062,10.0067618 22.4141226,11.7580766 22.0748776,14.0841473 C21.7079392,16.5589782 22.7256741,18.7498122 24.3388185,18.9797145 C24.4288223,18.9932382 24.5257494,19 24.6157532,19 C26.1388938,19 27.5858774,17.2486852 27.9251224,14.9226146 C28.2920608,12.4410218 27.2743259,10.2501878 25.6611815,10.0202855 Z M33.6088552,16.1311475 C33.3849494,16.0437158 33.1546463,16 32.9115486,16 L32.8859594,16 C31.6256897,16.0187354 30.2118846,17.1990632 29.4697969,18.9851678 C28.580571,21.1209992 28.9899988,23.3067916 30.3910092,23.8688525 C30.614915,23.9562842 30.8452181,24 31.0883158,24 C32.3549828,24 33.7879798,22.813427 34.5364649,21.0148322 C35.4192934,18.8790008 35.0034684,16.6932084 33.6088552,16.1311475 Z M25.2271442,23.9674466 C23.3930254,21.0844354 22.6013195,20 20.5032988,20 C18.405278,20 17.6069746,21.0910478 15.7728558,23.9674466 C14.202639,26.4272635 11.0292177,26.6322482 10.2375118,28.7217701 C10.0791706,29.0920651 10,29.4954222 10,29.9252289 C10,31.6246185 11.3722903,33 13.061263,33 C15.1592837,33 18.0160226,31.4130214 20.5098963,31.4130214 C23.00377,31.4130214 25.8473139,33 27.9453346,33 C29.6343073,33 31,31.6246185 31,29.9252289 C31,29.4954222 30.9142319,29.0920651 30.7558907,28.7217701 C29.9641847,26.6256358 26.797361,26.4272635 25.2271442,23.9674466 Z M17.3842031,19 C17.4741966,19 17.5711126,18.9932331 17.6611062,18.9796992 C19.2809893,18.7496241 20.2916856,16.5571429 19.924789,14.0804511 C19.5786601,11.7458647 18.1318414,10 16.6157969,10 C16.5258034,10 16.4288874,10.0067669 16.3388938,10.0203008 C14.7190107,10.2503759 13.7083144,12.4428571 14.075211,14.9195489 C14.4213399,17.2473684 15.8681586,19 17.3842031,19 Z M11.6104409,23.8688525 C13.0099908,23.3067916 13.4189917,21.1209992 12.5306929,18.9851678 C11.7829882,17.186573 10.3514851,16 9.08613867,16 C8.8432944,16 8.61323141,16.0437158 8.38955906,16.1311475 C6.99000919,16.6932084 6.58100832,18.8790008 7.46930709,21.0148322 C8.21701181,22.813427 9.64851487,24 10.9138613,24 C11.1567056,24 11.3867686,23.9562842 11.6104409,23.8688525 Z" id="Shape"></path>
        </g>
    </g>
</svg>